<svg width="48" height="42" viewBox="0 0 48 42" fill="none" xmlns="http://www.w3.org/2000/svg">
<g id="Group">
<path id="Vector" d="M39.406 25.0221C39.158 24.8381 38.806 24.8901 38.618 25.1381L34.53 30.6581L31.87 28.4381C31.63 28.2421 31.274 28.2781 31.078 28.5221C30.886 28.7581 30.918 29.1061 31.15 29.3021L34.27 31.9021C34.37 31.9861 34.498 32.0341 34.63 32.0341C34.654 32.0341 34.674 32.0341 34.698 32.0301C34.85 32.0101 34.99 31.9301 35.082 31.8061L39.526 25.8061C39.71 25.5581 39.658 25.2061 39.41 25.0181L39.406 25.0221ZM46.546 38.1061L44.29 35.8501L42.67 37.4701L44.926 39.7261C45.378 40.1701 46.102 40.1661 46.546 39.7141C46.986 39.2661 46.986 38.5501 46.546 38.1061ZM40.914 34.7901L41.366 35.2421L42.058 34.5501L41.606 34.0981C41.498 34.2181 41.386 34.3381 41.27 34.4541C41.154 34.5701 41.034 34.6821 40.914 34.7901ZM35.29 35.8061C39.338 35.8061 42.618 32.5181 42.618 28.4701C42.618 24.4221 39.33 21.1421 35.282 21.1421C31.234 21.1421 27.954 24.4301 27.954 28.4781C27.954 30.4221 28.73 32.2861 30.102 33.6581C31.478 35.0341 33.342 35.8061 35.286 35.8021L35.29 35.8061ZM27.782 32.3741C27.314 31.4701 27.014 30.4861 26.894 29.4741H1.62595C1.34995 29.4741 1.12595 29.6981 1.12595 29.9741V31.8781C1.12595 32.1541 1.34995 32.3781 1.62595 32.3781H27.782V32.3741ZM14.386 21.2501H12.794V24.9221H14.386V21.2501ZM19.438 16.4701H17.846V24.9221H19.438V16.4701ZM24.49 18.8581H22.898V24.9181H24.49V18.8581ZM29.31 22.4901C29.386 22.4141 29.466 22.3421 29.542 22.2701V14.0821H27.95V24.2741C28.322 23.6221 28.778 23.0261 29.31 22.4941V22.4901ZM3.30595 28.3461H26.838C26.85 27.5661 26.966 26.7941 27.19 26.0461H9.50995C9.19795 26.0461 8.94595 25.7941 8.94595 25.4821V8.83012C8.94595 8.51812 9.19795 8.26611 9.50995 8.26611C9.82195 8.26611 10.074 8.51812 10.074 8.83012V24.9261H11.666V20.6901C11.666 20.3781 11.918 20.1261 12.23 20.1261H14.946C15.258 20.1261 15.51 20.3781 15.51 20.6901V24.9261H16.718V15.9141C16.718 15.6021 16.97 15.3501 17.282 15.3501H19.998C20.31 15.3501 20.562 15.6021 20.562 15.9141V24.9261H21.77V18.3021C21.77 17.9901 22.022 17.7381 22.334 17.7381H25.05C25.362 17.7381 25.614 17.9901 25.614 18.3021V24.9261H26.822V13.5221C26.822 13.2101 27.074 12.9581 27.386 12.9581H30.102C30.414 12.9581 30.666 13.2101 30.666 13.5221V21.3941C33.17 19.7661 36.346 19.5781 39.03 20.8941V5.97012H3.30195V28.3501L3.30595 28.3461ZM1.62595 4.84212H40.706C40.982 4.84212 41.206 4.61812 41.206 4.34212V2.43812C41.206 2.16212 40.982 1.93812 40.706 1.93812H1.62595C1.34995 1.93812 1.12595 2.16212 1.12595 2.43812V4.34212C1.12595 4.61812 1.34995 4.84212 1.62595 4.84212ZM41.694 36.5021L41.87 36.6781L43.49 35.0581L43.314 34.8821L41.694 36.5021ZM21.166 36.5781C20.582 36.5781 20.11 37.0501 20.11 37.6341C20.11 38.2181 20.582 38.6901 21.166 38.6901C21.75 38.6901 22.222 38.2181 22.222 37.6341C22.222 37.0501 21.75 36.5821 21.166 36.5781ZM47.338 37.3101C48.222 38.1981 48.218 39.6381 47.33 40.5221C46.446 41.4021 45.014 41.4021 44.126 40.5221L40.886 37.2821C40.578 36.9741 40.482 36.5101 40.638 36.1021L40.018 35.4821C36.262 38.0141 31.174 37.1381 28.482 33.4941H21.726V35.5221C22.89 35.8341 23.578 37.0261 23.27 38.1901C22.958 39.3541 21.766 40.0421 20.602 39.7341C19.438 39.4221 18.75 38.2301 19.058 37.0661C19.258 36.3141 19.846 35.7261 20.602 35.5221V33.4941H1.62595C0.729953 33.4941 0.00195312 32.7661 0.00195312 31.8701V29.9661C0.00195312 29.0701 0.729953 28.3421 1.62595 28.3421H2.17795V5.97012H1.62595C0.729953 5.97012 0.00195312 5.24212 0.00195312 4.34612V2.44212C0.00195312 1.54612 0.729953 0.818115 1.62595 0.818115H40.706C41.602 0.818115 42.33 1.54612 42.33 2.44212V4.34612C42.33 5.24212 41.602 5.97012 40.706 5.97012H40.154V21.5581C43.926 24.2061 44.882 29.3861 42.302 33.2061L42.922 33.8261C43.33 33.6701 43.79 33.7661 44.102 34.0741L47.342 37.3141L47.338 37.3101ZM13.21 17.7141C12.978 17.5061 12.962 17.1501 13.17 16.9181L18.222 11.3501C18.41 11.1421 18.726 11.1061 18.958 11.2661L23.618 14.4621L27.542 10.1061H26.466C26.154 10.1061 25.902 9.85412 25.902 9.54212C25.902 9.23012 26.154 8.97812 26.466 8.97812H28.818C29.13 8.97812 29.382 9.23012 29.382 9.54212V11.8941C29.382 12.2061 29.13 12.4581 28.818 12.4581C28.506 12.4581 28.254 12.2061 28.254 11.8941V10.9941L24.122 15.5781C23.934 15.7861 23.618 15.8261 23.386 15.6661L18.726 12.4701L14.002 17.6741C13.794 17.9061 13.438 17.9221 13.206 17.7141H13.21Z" fill="black" fill-opacity="0.38"/>
</g>
</svg>
